HIERARCHY
ROOT Hips
{
	OFFSET 0.00000 0.00000 0.00000
	CHANNELS 6 Xposition Yposition Zposition Zrotation Yrotation Xrotation 
	JOINT LHipJoint
	{
		OFFSET 0 0 0
		CHANNELS 3 Zrotation Yrotation Xrotation
		JOINT LeftUpLeg
		{
			OFFSET 2.36090 -1.39315 1.24752
			CHANNELS 3 Zrotation Yrotation Xrotation
			JOINT LeftLeg
			{
				OFFSET 2.06810 -5.68207 0.00000
				CHANNELS 3 Zrotation Yrotation Xrotation
				JOINT LeftFoot
				{
					OFFSET 2.46631 -6.77613 0.00000
					CHANNELS 3 Zrotation Yrotation Xrotation
					JOINT LeftToeBase
					{
						OFFSET 0.26031 -0.71520 1.99545
						CHANNELS 3 Zrotation Yrotation Xrotation
						End Site
						{
							OFFSET 0.00000 -0.00000 1.05957
						}
					}
				}
			}
		}
	}
	JOINT RHipJoint
	{
		OFFSET 0 0 0
		CHANNELS 3 Zrotation Yrotation Xrotation
		JOINT RightUpLeg
		{
			OFFSET -2.25243 -1.39315 1.24752
			CHANNELS 3 Zrotation Yrotation Xrotation
			JOINT RightLeg
			{
				OFFSET -2.17343 -5.97145 0.00000
				CHANNELS 3 Zrotation Yrotation Xrotation
				JOINT RightFoot
				{
					OFFSET -2.52372 -6.93386 0.00000
					CHANNELS 3 Zrotation Yrotation Xrotation
					JOINT RightToeBase
					{
						OFFSET -0.22538 -0.61923 2.11447
						CHANNELS 3 Zrotation Yrotation Xrotation
						End Site
						{
							OFFSET -0.00000 -0.00000 1.10506
						}
					}
				}
			}
		}
	}
	JOINT LowerBack
	{
		OFFSET 0 0 0
		CHANNELS 3 Zrotation Yrotation Xrotation
		JOINT Spine
		{
			OFFSET 0.01594 2.13103 0.08007
			CHANNELS 3 Zrotation Yrotation Xrotation
			JOINT Spine1
			{
				OFFSET 0.01393 2.09723 0.18338
				CHANNELS 3 Zrotation Yrotation Xrotation
				JOINT Neck
				{
					OFFSET 0 0 0
					CHANNELS 3 Zrotation Yrotation Xrotation
					JOINT Neck1
					{
						OFFSET 0.05351 1.38915 0.32494
						CHANNELS 3 Zrotation Yrotation Xrotation
						JOINT Head
						{
							OFFSET 0.00711 1.45992 -0.21666
							CHANNELS 3 Zrotation Yrotation Xrotation
							End Site
							{
								OFFSET -0.00433 1.47702 -0.11056
							}
						}
					}
				}
				JOINT LeftShoulder
				{
					OFFSET 0 0 0
					CHANNELS 3 Zrotation Yrotation Xrotation
					JOINT LeftArm
					{
						OFFSET 2.87198 0.92249 0.11132
						CHANNELS 3 Zrotation Yrotation Xrotation
						JOINT LeftForeArm
						{
							OFFSET 5.52731 -0.00000 0.00000
							CHANNELS 3 Zrotation Yrotation Xrotation
							JOINT LeftHand
							{
								OFFSET 3.11059 -0.00000 0.00000
								CHANNELS 3 Zrotation Yrotation Xrotation
								JOINT LeftFingerBase
								{
									OFFSET 0 0 0
									CHANNELS 3 Zrotation Yrotation Xrotation
									JOINT LeftHandIndex1
									{
										OFFSET 0.41963 -0.00000 0.00000
										CHANNELS 3 Zrotation Yrotation Xrotation
										End Site
										{
											OFFSET 0.33831 -0.00000 0.00000
										}
									}
								}
								JOINT LThumb
								{
									OFFSET 0 0 0
									CHANNELS 3 Zrotation Yrotation Xrotation
									End Site
									{
										OFFSET 0.34348 -0.00000 0.34348
									}
								}
							}
						}
					}
				}
				JOINT RightShoulder
				{
					OFFSET 0 0 0
					CHANNELS 3 Zrotation Yrotation Xrotation
					JOINT RightArm
					{
						OFFSET -2.94710 0.68072 0.32187
						CHANNELS 3 Zrotation Yrotation Xrotation
						JOINT RightForeArm
						{
							OFFSET -5.25396 -0.00000 -0.00000
							CHANNELS 3 Zrotation Yrotation Xrotation
							JOINT RightHand
							{
								OFFSET -3.10567 -0.00000 0.00000
								CHANNELS 3 Zrotation Yrotation Xrotation
								JOINT RightFingerBase
								{
									OFFSET 0 0 0
									CHANNELS 3 Zrotation Yrotation Xrotation
									JOINT RightHandIndex1
									{
										OFFSET -0.49868 -0.00000 0.00000
										CHANNELS 3 Zrotation Yrotation Xrotation
										End Site
										{
											OFFSET -0.40204 -0.00000 0.00000
										}
									}
								}
								JOINT RThumb
								{
									OFFSET 0 0 0
									CHANNELS 3 Zrotation Yrotation Xrotation
									End Site
									{
										OFFSET -0.40818 -0.00000 0.40818
									}
								}
							}
						}
					}
				}
			}
		}
	}
}
MOTION
Frames: 11
Frame Time: .0083333
6.9368 5.3304 20.4376 -180.8130 6.0980 -129.2400 0.0000 0.0000 0.0000 -14.2812 11.2494 169.9141 38.4291 7.9084 157.5639 -0.6897 -16.1650 -1.6342 0.1925 -2.8258 -7.7940 0.0000 0.0000 0.0000 19.8813 -20.5509 172.5428 -37.5944 -9.6642 152.1041 0.4058 18.9189 -9.3991 -0.0078 0.5721 -1.5720 8.4865 0.9224 0.6824 4.3832 1.6270 0.4873 -0.2298 0.9762 0.2073 1.1251 6.6460 -24.3931 -8.5840 10.0589 4.5151 -1.7255 4.4968 5.7244 0.0000 0.0000 0.0000 -85.2253 -28.3235 52.3343 60.6303 -56.4756 -34.8661 -0.0000 0.0000 -111.9960 -37.4479 -32.6654 22.4588 -7.1250 0.0000 -0.0000 -35.2308 -4.5507 47.8671 0.0000 0.0000 0.0000 83.4028 57.3086 59.2822 -51.7280 53.6691 -27.5603 0.0000 -0.0000 -31.0477 -13.0482 -38.6405 8.2344 7.1250 -0.0000 -0.0000 29.7200 -67.0995 -16.3992
6.9430 5.3835 20.4456 -180.7550 6.0057 -128.8130 0.0000 0.0000 0.0000 -13.7343 10.8208 170.6357 38.3547 8.0844 157.0292 -0.6319 -15.9324 -2.4305 0.1999 -2.8791 -7.9425 0.0000 0.0000 0.0000 19.4519 -20.0345 173.2355 -37.5215 -9.7987 151.6727 0.3165 18.4689 -9.9226 -0.0099 0.6417 -1.7635 8.4593 0.9536 0.5707 4.3954 1.6658 0.3644 -0.2017 0.9914 0.1440 1.2704 6.7498 -24.5894 -8.7191 10.1828 4.2558 -1.7727 4.5692 5.6906 0.0000 0.0000 0.0000 -85.1465 -28.2754 52.2894 61.2056 -56.6227 -35.3461 -0.0000 0.0000 -111.9940 -36.7145 -32.8050 22.0009 -7.1250 0.0000 -0.0000 -34.9400 -4.4312 47.1607 0.0000 0.0000 0.0000 83.2885 57.2380 58.9729 -52.3520 53.9012 -28.0637 0.0000 -0.0000 -31.0879 -13.0773 -38.8783 8.2953 7.1250 -0.0000 -0.0000 30.0258 -67.3065 -16.7198
6.9493 5.4411 20.4545 -180.6950 5.9026 -128.3910 0.0000 0.0000 0.0000 -13.1822 10.4029 171.3970 38.2756 8.2667 156.4730 -0.5747 -15.7304 -3.2211 0.2089 -2.9430 -8.1202 0.0000 0.0000 0.0000 19.0470 -19.5290 173.9773 -37.4437 -9.9396 151.2186 0.2321 18.0638 -10.4448 -0.0102 0.6536 -1.7960 8.4436 0.9797 0.4737 4.3987 1.6988 0.2488 -0.1892 1.0037 0.0802 1.4479 6.8622 -24.8149 -8.8749 10.3130 3.9827 -1.8298 4.6451 5.6602 -0.0000 -0.0000 0.0000 -85.0661 -28.2500 52.2345 61.7739 -56.7644 -35.8210 -0.0000 0.0000 -111.9780 -35.9431 -32.9433 21.5181 -7.1250 0.0000 -0.0000 -34.6324 -4.3113 46.4290 -0.0000 -0.0000 0.0000 83.1844 57.1887 58.6957 -52.9506 54.1183 -28.5480 0.0000 -0.0000 -31.0936 -13.1987 -39.1230 8.4176 7.1250 -0.0000 -0.0000 30.2468 -67.5465 -17.0142
6.9557 5.5027 20.4642 -180.6320 5.7899 -127.9770 0.0000 0.0000 0.0000 -12.6288 9.9990 172.1937 38.1917 8.4547 155.8960 -0.5182 -15.5584 -4.0011 0.2184 -3.0082 -8.3017 0.0000 0.0000 0.0000 18.6608 -19.0298 174.7626 -37.3613 -10.0859 150.7448 0.1510 17.6955 -10.9693 -0.0093 0.6229 -1.7118 8.4396 1.0041 0.3905 4.3960 1.7306 0.1391 -0.1896 1.0155 0.0152 1.6464 6.9816 -25.0698 -9.0429 10.4496 3.7064 -1.8923 4.7241 5.6353 0.0000 0.0000 0.0000 -84.9990 -28.2410 52.1932 62.3201 -56.8971 -36.2782 -0.0000 0.0000 -111.9380 -35.1347 -33.0942 21.0188 -7.1250 0.0000 -0.0000 -34.3058 -4.2047 45.6777 0.0000 0.0000 0.0000 83.0716 57.1644 58.4422 -53.4973 54.3122 -28.9916 0.0000 -0.0000 -31.0788 -13.4090 -39.3474 8.5952 7.1250 -0.0000 -0.0000 30.3468 -67.7965 -17.2436
6.9623 5.5677 20.4742 -180.5640 5.6786 -127.5610 0.0000 0.0000 0.0000 -12.0855 9.6157 173.0057 38.1033 8.6475 155.3012 -0.4621 -15.4116 -4.7658 0.2278 -3.0723 -8.4801 0.0000 0.0000 0.0000 18.2771 -18.5209 175.5807 -37.2740 -10.2377 150.2501 0.0729 17.3536 -11.4875 -0.0072 0.5462 -1.5009 8.4382 1.0323 0.3090 4.3877 1.7677 0.0293 -0.1971 1.0298 -0.0503 1.8502 7.1046 -25.3388 -9.2114 10.5903 3.4307 -1.9546 4.8055 5.6134 -0.0000 0.0000 0.0000 -84.9518 -28.2410 52.1664 62.8444 -57.0214 -36.7177 -0.0000 0.0000 -111.8810 -34.2875 -33.2503 20.4981 -7.1250 0.0000 -0.0000 -33.9604 -4.1060 44.9048 -0.0000 0.0000 0.0000 83.0154 57.0301 58.1101 -54.2385 54.5682 -29.5945 0.0000 -0.0000 -30.9013 -13.5827 -39.6336 8.7612 7.1250 -0.0000 -0.0000 30.5865 -68.0861 -17.5864
6.9691 5.6354 20.4842 -180.4900 5.5762 -127.1350 0.0000 0.0000 0.0000 -11.5512 9.2475 173.8160 38.0089 8.8474 154.6807 -0.4054 -15.2714 -5.5075 0.2380 -3.1399 -8.6686 0.0000 0.0000 0.0000 17.8882 -17.9954 176.4125 -37.1817 -10.3949 149.7346 -0.0014 17.0364 -11.9878 -0.0042 0.4177 -1.1478 8.4296 1.0658 0.2160 4.3744 1.8103 -0.0836 -0.2056 1.0469 -0.1122 2.0540 7.2320 -25.6184 -9.3761 10.7371 3.1572 -2.0144 4.8906 5.5940 0.0000 0.0000 0.0000 -84.9252 -28.2472 52.1507 63.3300 -57.1339 -37.1254 -0.0000 0.0000 -111.7950 -33.4030 -33.4254 19.9641 -7.1250 0.0000 -0.0000 -33.5943 -4.0289 44.1164 0.0000 0.0000 0.0000 82.9556 56.9128 57.7920 -54.9112 54.7939 -30.1435 0.0000 -0.0000 -30.7206 -13.7774 -39.8787 8.9347 7.1250 -0.0000 -0.0000 30.7483 -68.3479 -17.8643
6.9762 5.7057 20.4939 -180.4150 5.4855 -126.6970 0.0000 0.0000 0.0000 -11.0198 8.8830 174.6248 37.9070 9.0571 154.0259 -0.3471 -15.1198 -6.2242 0.2497 -3.2154 -8.8792 0.0000 0.0000 0.0000 17.4799 -17.4382 177.2529 -37.0829 -10.5596 149.1914 -0.0785 16.6992 -12.5021 -0.0024 0.3189 -0.8763 8.4075 1.1047 0.1096 4.3571 1.8587 -0.2008 -0.2103 1.0668 -0.1709 2.2540 7.3623 -25.9121 -9.5394 10.8897 2.8905 -2.0717 4.9784 5.5790 -0.0000 -0.0000 0.0000 -84.9226 -28.2626 52.1425 63.7619 -57.2318 -37.4883 -0.0000 0.0000 -111.6690 -32.4736 -33.6270 19.4145 -7.1250 0.0000 -0.0000 -33.2032 -3.9798 43.3093 -0.0000 -0.0000 0.0000 82.8996 56.7906 57.4682 -55.5415 54.9998 -30.6591 0.0000 -0.0000 -30.5324 -13.9490 -40.0841 9.0867 7.1250 -0.0000 -0.0000 30.8808 -68.5701 -18.0982
6.9838 5.7778 20.5029 -180.3300 5.4127 -126.2450 0.0000 0.0000 0.0000 -10.5081 8.5421 175.4139 37.7991 9.2726 153.3481 -0.2884 -14.9664 -6.9143 0.2640 -3.3054 -9.1302 0.0000 0.0000 0.0000 17.0235 -16.8070 178.1091 -36.9745 -10.7362 148.6047 -0.1685 16.2566 -13.0741 -0.0031 0.3616 -0.9937 8.3662 1.1529 -0.0101 4.3385 1.9186 -0.3252 -0.2055 1.0925 -0.2293 2.4445 7.4968 -26.2057 -9.7009 11.0510 2.6220 -2.1257 5.0714 5.5636 -0.0000 -0.0000 0.0000 -84.9433 -28.2888 52.1467 64.1163 -57.3106 -37.7865 -0.0000 0.0000 -111.4870 -31.4901 -33.8716 18.8500 -7.1250 0.0000 -0.0000 -32.7811 -3.9729 42.4812 -0.0000 -0.0000 0.0000 82.8271 56.6822 57.1450 -56.0775 55.1707 -31.0986 0.0000 -0.0000 -30.3800 -14.1077 -40.2252 9.2189 7.1250 -0.0000 -0.0000 30.9290 -68.7352 -18.2409
6.9918 5.8520 20.5113 -180.2440 5.3595 -125.7790 0.0000 0.0000 0.0000 -10.0176 8.2129 176.1916 37.6848 9.4939 152.6472 -0.2283 -14.8043 -7.5885 0.2807 -3.4078 -9.4162 0.0000 0.0000 0.0000 16.5397 -16.1355 178.9558 -36.8589 -10.9201 147.9891 -0.2626 15.7611 -13.6592 -0.0055 0.4789 -1.3159 8.3018 1.2091 -0.1474 4.3155 1.9876 -0.4572 -0.1921 1.1227 -0.2857 2.6334 7.6346 -26.5032 -9.8690 11.2188 2.3522 -2.1802 5.1678 5.5493 -0.0000 -0.0000 0.0000 -84.9797 -28.3320 52.1601 64.4036 -57.3735 -38.0283 -0.0000 0.0000 -111.2800 -30.4489 -34.1400 18.2582 -7.1250 0.0000 -0.0000 -32.3282 -3.9930 41.6263 -0.0000 -0.0000 0.0000 82.7342 56.5993 56.8250 -56.4906 55.2998 -31.4379 0.0000 -0.0000 -30.2913 -14.2533 -40.3024 9.3309 7.1250 -0.0000 -0.0000 30.8916 -68.8444 -18.2914
7.0000 5.9281 20.5192 -180.1500 5.3090 -125.3110 0.0000 0.0000 0.0000 -9.5359 7.8983 176.9613 37.5648 9.7191 151.9281 -0.1680 -14.6368 -8.2384 0.2980 -3.5102 -9.7025 0.0000 0.0000 0.0000 16.0421 -15.4177 179.8092 -36.7340 -11.1137 147.3356 -0.3661 15.1668 -14.2892 -0.0133 0.7449 -2.0472 8.2357 1.2697 -0.2875 4.2913 2.0635 -0.5963 -0.1788 1.1564 -0.3475 2.8232 7.7777 -26.7974 -10.0425 11.3941 2.0791 -2.2354 5.2686 5.5346 -0.0000 -0.0000 0.0000 -85.0295 -28.3778 52.1863 64.6321 -57.4230 -38.2209 -0.0000 0.0000 -111.0390 -29.3423 -34.4395 17.6361 -7.1250 0.0000 -0.0000 -31.8402 -4.0471 40.7421 -0.0000 -0.0000 0.0000 82.6274 56.5222 56.5021 -56.8120 55.3988 -31.7023 0.0000 -0.0000 -30.2698 -14.4101 -40.3134 9.4382 7.1250 -0.0000 -0.0000 30.7353 -68.9029 -18.2319
7.0084 6.0062 20.5267 -180.0560 5.2718 -124.8390 0.0000 0.0000 0.0000 -9.0790 7.5948 177.7314 37.4398 9.9465 151.1963 -0.1064 -14.4665 -8.8810 0.3161 -3.6141 -9.9933 0.0000 0.0000 0.0000 15.5534 -14.6981 -179.3474 -36.6043 -11.3096 146.6686 -0.4630 14.5970 -14.8863 -0.0225 0.9684 -2.6619 8.1552 1.3355 -0.4413 4.2627 2.1453 -0.7414 -0.1616 1.1932 -0.4078 3.0126 7.9238 -27.0884 -10.2220 11.5748 1.8016 -2.2915 5.3726 5.5192 -0.0000 0.0000 0.0000 -85.0913 -28.4220 52.2206 64.8191 -57.4630 -38.3785 -0.0000 0.0000 -110.7620 -28.1545 -34.7694 16.9720 -7.1250 0.0000 -0.0000 -31.3099 -4.1346 39.8177 -0.0000 0.0000 0.0000 82.5137 56.4164 56.1591 -57.1161 55.4912 -31.9528 0.0000 -0.0000 -30.2856 -14.5856 -40.2819 9.5500 7.1250 -0.0000 -0.0000 30.4894 -68.9327 -18.0961
